# xmcd
#
# Track frame offsets:
#	150
#	20364
#	34334
#	47696
#	71047
#	84580
#	117523
#	140551
#	159947
#	167365
#
# Disc length: 2512 seconds
#
# Revision: 0
# Processed by: cddbd v1.5.1PL2 Copyright (c) Steve Scherf et al.
# Submitted via: dBpowerAMP V4.0
#
DISCID=7f09ce0a
DTITLE=Larsen&Furious Jane - Tourist with a typewriter
DYEAR=1900
DGENRE=
TTITLE0=The joy of smoking
TTITLE1=unsuccesful is the new succesful
TTITLE2=put the dead on parade
TTITLE3=it's your universe
TTITLE4=art director
TTITLE5=sick on the dock of the bay
TTITLE6=doctor
TTITLE7=i wish i was a mole in the ground
TTITLE8=good ol' pain
TTITLE9=tourist with a typewriter
EXTD=
EXTT0=
EXTT1=
EXTT2=
EXTT3=
EXTT4=
EXTT5=
EXTT6=
EXTT7=
EXTT8=
EXTT9=
PLAYORDER=
